<svg xmlns="http://www.w3.org/2000/svg" width="1200" height="600" viewBox="0 0 1200 600" role="img" aria-labelledby="title desc"><title id="title">Ilustrasi editorial railing: tiga studi geometri berlabel sistem pengaman, panel isian, detail pengikat.</title><desc id="desc">Ilustrasi editorial orisinal untuk Panel dekoratif pada railing: pisahkan pola dari fungsi pengaman. Bukan foto proyek, peta lokasi, atau gambar kerja.</desc><rect width="1200" height="600" fill="#e0e5da"/><path d="M24 24H1176V576H24ZM24 46H1176M46 24V576" stroke="#bac7b9" fill="none"/><g transform="translate(55 110)"><path d="M15 210L290 55V235L15 390Z" stroke="#315d48" stroke-width="2" fill="#315d48" /><path d="M33 218v125" stroke="#eef0e8" stroke-width="10" fill="none" /><path d="M69 198v125" stroke="#eef0e8" stroke-width="10" fill="none" /><path d="M105 178v125" stroke="#eef0e8" stroke-width="10" fill="none" /><path d="M141 158v125" stroke="#eef0e8" stroke-width="10" fill="none" /><path d="M177 138v125" stroke="#eef0e8" stroke-width="10" fill="none" /><path d="M213 118v125" stroke="#eef0e8" stroke-width="10" fill="none" /><path d="M249 98v125" stroke="#eef0e8" stroke-width="10" fill="none" /><path d="M0 405h65v-38h65v-38h65v-38h65v-38h50" stroke="#315d48" stroke-width="3" fill="none" /><text y="-30" fill="#536559" font-family="monospace" font-size="18">01 / RAILING</text><text y="440" fill="#122c25" font-family="Arial,sans-serif" font-size="19">Sistem pengaman</text></g><g transform="translate(435 110)"><path d="M15 210L290 55V235L15 390Z" stroke="#315d48" stroke-width="2" fill="#315d48" /><path d="M33 218v125" stroke="#eef0e8" stroke-width="12" fill="none" /><path d="M69 198v125" stroke="#eef0e8" stroke-width="12" fill="none" /><path d="M105 178v125" stroke="#eef0e8" stroke-width="12" fill="none" /><path d="M141 158v125" stroke="#eef0e8" stroke-width="12" fill="none" /><path d="M177 138v125" stroke="#eef0e8" stroke-width="12" fill="none" /><path d="M213 118v125" stroke="#eef0e8" stroke-width="12" fill="none" /><path d="M249 98v125" stroke="#eef0e8" stroke-width="12" fill="none" /><path d="M0 405h65v-38h65v-38h65v-38h65v-38h50" stroke="#315d48" stroke-width="3" fill="none" /><text y="-30" fill="#536559" font-family="monospace" font-size="18">02 / RAILING</text><text y="440" fill="#122c25" font-family="Arial,sans-serif" font-size="19">Panel isian</text></g><g transform="translate(815 110)"><path d="M15 210L290 55V235L15 390Z" stroke="#315d48" stroke-width="2" fill="#315d48" /><path d="M33 218v125" stroke="#eef0e8" stroke-width="14" fill="none" /><path d="M69 198v125" stroke="#eef0e8" stroke-width="14" fill="none" /><path d="M105 178v125" stroke="#eef0e8" stroke-width="14" fill="none" /><path d="M141 158v125" stroke="#eef0e8" stroke-width="14" fill="none" /><path d="M177 138v125" stroke="#eef0e8" stroke-width="14" fill="none" /><path d="M213 118v125" stroke="#eef0e8" stroke-width="14" fill="none" /><path d="M249 98v125" stroke="#eef0e8" stroke-width="14" fill="none" /><path d="M0 405h65v-38h65v-38h65v-38h65v-38h50" stroke="#315d48" stroke-width="3" fill="none" /><text y="-30" fill="#536559" font-family="monospace" font-size="18">03 / RAILING</text><text y="440" fill="#122c25" font-family="Arial,sans-serif" font-size="19">Detail pengikat</text></g></svg>
