<svg xmlns="http://www.w3.org/2000/svg" width="1200" height="600" viewBox="0 0 1200 600" role="img" aria-labelledby="title desc"><title id="title">Ilustrasi editorial spons &amp; foam: tiga studi geometri berlabel batas benda, bagian menonjol, arah simpan.</title><desc id="desc">Ilustrasi editorial orisinal untuk Pola insert spons untuk peralatan: menentukan orientasi dan batas ruang benda. Bukan foto proyek, peta lokasi, atau gambar kerja.</desc><rect width="1200" height="600" fill="#e0e5da"/><path d="M24 24H1176V576H24ZM24 46H1176M46 24V576" stroke="#bac7b9" fill="none"/><g transform="translate(55 110)"><rect x="10" y="45" width="290" height="300" fill="#315d48" rx="20"/><rect x="28" y="70" width="68" height="115" fill="#eef0e8" rx="17"/><circle cx="61" cy="210" r="11" fill="#eef0e8"/><rect x="119" y="70" width="68" height="139" fill="#eef0e8" rx="17"/><circle cx="152" cy="234" r="11" fill="#eef0e8"/><rect x="210" y="70" width="68" height="163" fill="#eef0e8" rx="17"/><circle cx="243" cy="258" r="11" fill="#eef0e8"/><path d="M35 315H275" stroke="#a83b1c" stroke-width="2" fill="none" stroke-dasharray="6 5"/><text y="-30" fill="#536559" font-family="monospace" font-size="18">01 / SPONS &amp; FOAM</text><text y="440" fill="#122c25" font-family="Arial,sans-serif" font-size="19">Batas benda</text></g><g transform="translate(435 110)"><rect x="10" y="45" width="290" height="300" fill="#315d48" rx="20"/><rect x="28" y="79" width="68" height="115" fill="#eef0e8" rx="11"/><circle cx="61" cy="210" r="15" fill="#eef0e8"/><rect x="119" y="79" width="68" height="139" fill="#eef0e8" rx="11"/><circle cx="152" cy="234" r="15" fill="#eef0e8"/><rect x="210" y="79" width="68" height="163" fill="#eef0e8" rx="11"/><circle cx="243" cy="258" r="15" fill="#eef0e8"/><path d="M35 315H275" stroke="#a83b1c" stroke-width="2" fill="none" stroke-dasharray="6 5"/><text y="-30" fill="#536559" font-family="monospace" font-size="18">02 / SPONS &amp; FOAM</text><text y="440" fill="#122c25" font-family="Arial,sans-serif" font-size="19">Bagian menonjol</text></g><g transform="translate(815 110)"><rect x="10" y="45" width="290" height="300" fill="#315d48" rx="20"/><rect x="28" y="88" width="68" height="115" fill="#eef0e8" rx="15"/><circle cx="61" cy="210" r="19" fill="#eef0e8"/><rect x="119" y="88" width="68" height="139" fill="#eef0e8" rx="15"/><circle cx="152" cy="234" r="19" fill="#eef0e8"/><rect x="210" y="88" width="68" height="163" fill="#eef0e8" rx="15"/><circle cx="243" cy="258" r="19" fill="#eef0e8"/><path d="M35 315H275" stroke="#a83b1c" stroke-width="2" fill="none" stroke-dasharray="6 5"/><text y="-30" fill="#536559" font-family="monospace" font-size="18">03 / SPONS &amp; FOAM</text><text y="440" fill="#122c25" font-family="Arial,sans-serif" font-size="19">Arah simpan</text></g></svg>
