<svg xmlns="http://www.w3.org/2000/svg" width="1200" height="600" viewBox="0 0 1200 600" role="img" aria-labelledby="title desc"><title id="title">Ilustrasi editorial mdf / hmr: tiga studi geometri berlabel muka panel, tepi terbuka, pertemuan sudut.</title><desc id="desc">Ilustrasi editorial orisinal untuk Tepi MDF sebelum finishing: menentukan sisi terlihat dan sampel pertemuan. Bukan foto proyek, peta lokasi, atau gambar kerja.</desc><rect width="1200" height="600" fill="#e0e5da"/><path d="M24 24H1176V576H24ZM24 46H1176M46 24V576" stroke="#bac7b9" fill="none"/><g transform="translate(55 110)"><path d="M20 196L155 131L285 206L150 271Z" stroke="#315d48" stroke-width="2" fill="#315d48" /><path d="M20 148L155 83L285 158L150 223Z" stroke="#315d48" stroke-width="2" fill="#e4d8bb" /><path d="M20 100L155 35L285 110L150 175Z" stroke="#315d48" stroke-width="2" fill="#b5c9b7" /><path d="M20 280L150 350L285 280" stroke="#315d48" stroke-width="2" fill="none" /><path d="M20 303L150 374L285 303" stroke="#a83b1c" stroke-width="1.5" fill="none" stroke-dasharray="5 6"/><text y="-30" fill="#536559" font-family="monospace" font-size="18">01 / MDF / HMR</text><text y="440" fill="#122c25" font-family="Arial,sans-serif" font-size="19">Muka panel</text></g><g transform="translate(435 110)"><path d="M20 196L155 131L285 206L150 271Z" stroke="#315d48" stroke-width="2" fill="#b5c9b7" /><path d="M20 148L155 83L285 158L150 223Z" stroke="#315d48" stroke-width="2" fill="#315d48" /><path d="M20 100L155 35L285 110L150 175Z" stroke="#315d48" stroke-width="2" fill="#e4d8bb" /><path d="M20 280L150 350L285 280" stroke="#315d48" stroke-width="2" fill="none" /><path d="M20 303L150 374L285 303" stroke="#a83b1c" stroke-width="1.5" fill="none" stroke-dasharray="5 6"/><text y="-30" fill="#536559" font-family="monospace" font-size="18">02 / MDF / HMR</text><text y="440" fill="#122c25" font-family="Arial,sans-serif" font-size="19">Tepi terbuka</text></g><g transform="translate(815 110)"><path d="M20 196L155 131L285 206L150 271Z" stroke="#315d48" stroke-width="2" fill="#e4d8bb" /><path d="M20 148L155 83L285 158L150 223Z" stroke="#315d48" stroke-width="2" fill="#b5c9b7" /><path d="M20 100L155 35L285 110L150 175Z" stroke="#315d48" stroke-width="2" fill="#315d48" /><path d="M20 280L150 350L285 280" stroke="#315d48" stroke-width="2" fill="none" /><path d="M20 303L150 374L285 303" stroke="#a83b1c" stroke-width="1.5" fill="none" stroke-dasharray="5 6"/><text y="-30" fill="#536559" font-family="monospace" font-size="18">03 / MDF / HMR</text><text y="440" fill="#122c25" font-family="Arial,sans-serif" font-size="19">Pertemuan sudut</text></g></svg>
